<?xml version="1.0" encoding="UTF-8"?>
<svg width="24px" height="21px" viewBox="0 0 24 21" version="1.1" xmlns="http://www.w3.org/2000/svg" xmlns:xlink="http://www.w3.org/1999/xlink">
	<title>cart</title>
	<g id="Symbols" stroke="none" stroke-width="1" fill="none" fill-rule="evenodd">
		<g id="Navigation/Tablet/Main" transform="translate(-725.000000, -20.000000)" fill="#FFFFFF" fill-rule="nonzero">
			<g id="cart" transform="translate(702.000000, 0.000000)">
				<path d="M23.8195614,20.5004536 C22.8464541,20.4712683 22.6832831,21.8593558 23.6374136,22.0498985 L25.3952417,22.4289823 C26.3250879,26.8086344 27.3386726,31.1704401 28.3215538,35.5391083 C28.4023682,35.8973187 28.725095,36.1521739 29.0977525,36.1521739 L43.0563704,36.1521739 C44.1318026,36.1677365 44.1318026,34.57125 43.0563704,34.5867991 L29.7357856,34.5867991 L29.3839075,33.0220418 L43.7606372,33.0220418 C44.1333047,33.0221404 44.4560115,32.7672914 44.5368359,32.409081 L46.2972577,24.5837465 C46.406993,24.0953065 46.0296088,23.6322557 45.5215697,23.6319599 C39.4399114,23.632098 33.3582932,23.6318317 27.276795,23.6290019 L26.8447134,21.6105904 C26.7803223,21.3093505 26.5425657,21.0732846 26.2372135,21.007312 L23.9769242,20.520203 C23.925251,20.5084698 23.8725965,20.5016664 23.8196115,20.5003846 L23.8195614,20.5004536 Z M32.0674714,36.1521739 C30.8847207,36.1521739 29.9085457,37.1351563 29.9085457,38.3260921 C29.9085457,39.5170484 30.8847207,40.5 32.0674714,40.5 C33.250222,40.5 34.2263868,39.5170484 34.2263868,38.3260921 C34.2263868,37.1351563 33.250222,36.1521739 32.0674714,36.1521739 Z M39.8395751,36.1521739 C38.6568347,36.1521739 37.6806597,37.1351563 37.6806597,38.3260921 C37.6806597,39.5170484 38.6568347,40.5 39.8395751,40.5 C41.022336,40.5 41.9985007,39.5170484 41.9985007,38.3260921 C41.9985007,37.1351563 41.022336,36.1521739 39.8395751,36.1521739 Z"></path>
			</g>
		</g>
	</g>
</svg>
