<?xml version="1.0" encoding="UTF-8"?>
<svg width="16px" height="16px" viewBox="0 0 16 16" version="1.1" xmlns="http://www.w3.org/2000/svg" xmlns:xlink="http://www.w3.org/1999/xlink">
	<title>search</title>
	<g id="Symbols" stroke="none" stroke-width="1" fill="none" fill-rule="evenodd" opacity="0.4">
		<g id="Navigation/Desktop/Main" transform="translate(-1122.000000, -26.000000)" fill="#414141" fill-rule="nonzero">
			<g id="navigation/main-bar" transform="translate(0.000000, 1.000000)">
				<g id="Combined-Shape" transform="translate(1122.000000, 25.000000)">
					<path d="M6.875,0.3125 C10.4993687,0.3125 13.4375,3.25063133 13.4375,6.875 C13.4375,8.34874279 12.9517086,9.70902292 12.1315222,10.8044438 L15.4129126,14.0870874 C15.7790291,14.4532039 15.7790291,15.0467961 15.4129126,15.4129126 C15.0467961,15.7790291 14.4532039,15.7790291 14.0870874,15.4129126 L14.0870874,15.4129126 L10.8044438,12.1315222 C9.70902292,12.9517086 8.34874279,13.4375 6.875,13.4375 C3.25063133,13.4375 0.3125,10.4993687 0.3125,6.875 C0.3125,3.25063133 3.25063133,0.3125 6.875,0.3125 Z M6.875,2.1875 C4.28616524,2.1875 2.1875,4.28616524 2.1875,6.875 C2.1875,9.46383476 4.28616524,11.5625 6.875,11.5625 C9.46383476,11.5625 11.5625,9.46383476 11.5625,6.875 C11.5625,4.28616524 9.46383476,2.1875 6.875,2.1875 Z"></path>
				</g>
			</g>
		</g>
	</g>
</svg>
