<svg width="26" height="24" viewBox="0 0 26 24" fill="none" xmlns="http://www.w3.org/2000/svg">
<path d="M13.0643 0C14.1242 0 17.7181 0.296937 19.4145 4.09188C19.9818 5.36884 19.8459 7.53928 19.7341 9.28229L19.7314 9.34487C19.7168 9.53928 19.7075 9.71505 19.6995 9.89081C19.8311 9.96091 19.9793 9.99404 20.1282 9.98668C20.4491 9.96937 20.834 9.85885 21.2348 9.66578C21.389 9.5894 21.5593 9.55104 21.7314 9.55393C21.9258 9.55393 22.1163 9.58455 22.276 9.6498C22.7567 9.80959 23.0617 10.1624 23.0617 10.5473C23.079 11.028 22.6449 11.4461 21.7634 11.7976C21.6688 11.8282 21.5384 11.8788 21.3959 11.9254C20.9125 12.0706 20.1748 12.3103 19.9671 12.7923C19.8712 13.0333 19.9019 13.3529 20.0976 13.7204L20.1136 13.7377C20.1775 13.8828 21.7487 17.4594 25.2454 18.0373C25.3737 18.0579 25.49 18.1246 25.5726 18.2249C25.6552 18.3251 25.6984 18.4521 25.6941 18.5819C25.6941 18.6618 25.6768 18.7403 25.6462 18.8229C25.3892 19.4314 24.284 19.8815 22.2774 20.1824C22.2148 20.2796 22.1495 20.5846 22.1016 20.7936C22.0723 20.9854 22.0217 21.1784 21.9591 21.3848C21.8779 21.6751 21.6702 21.8176 21.3653 21.8176H21.3333C21.1392 21.8086 20.9462 21.7823 20.7567 21.739C20.3087 21.6423 19.8516 21.5941 19.3932 21.5952C19.0736 21.5952 18.7541 21.6112 18.4185 21.6751C17.7754 21.7869 17.2148 22.1718 16.573 22.6205C15.6582 23.261 14.6169 24 13.0457 24C12.9818 24 12.9179 23.984 12.8513 23.984H12.6928C11.1203 23.984 10.095 23.261 9.1815 22.6045C8.54102 22.1545 7.99641 21.771 7.35327 21.6578C7.02479 21.6087 6.69336 21.582 6.36126 21.5779C5.78203 21.5779 5.33463 21.6738 4.99908 21.7377C4.77271 21.7843 4.58097 21.8162 4.41985 21.8162C4.27943 21.8269 4.13975 21.7878 4.0253 21.7057C3.91086 21.6237 3.82898 21.5039 3.79402 21.3675C3.7301 21.1625 3.69948 20.9507 3.65154 20.7603C3.60094 20.5659 3.53836 20.233 3.47445 20.1505C1.41985 19.9121 0.314658 19.462 0.0589989 18.8375C0.0236873 18.7619 0.00377177 18.68 0.000410435 18.5965C-0.00470838 18.4665 0.0381988 18.3391 0.120955 18.2387C0.203711 18.1382 0.320529 18.0718 0.449145 18.0519C3.94448 17.474 5.51572 13.8988 5.58097 13.7483L5.59828 13.7177C5.79136 13.3489 5.83796 13.0253 5.72611 12.7869C5.51839 12.3222 4.77937 12.0826 4.30134 11.9214C4.17415 11.8893 4.04987 11.8465 3.92984 11.7936C2.74475 11.3276 2.58363 10.7976 2.64888 10.4301C2.74475 9.91877 3.36925 9.58189 3.89921 9.58189C4.055 9.58189 4.18816 9.61252 4.30933 9.66178C4.75807 9.86817 5.15487 9.98269 5.49175 9.98269C5.66436 9.98902 5.83561 9.95 5.98843 9.86951L5.93383 9.25965C5.82731 7.51931 5.69149 5.35153 6.26273 4.08122C7.90853 0.304927 11.4944 0.014647 12.553 0.014647L12.9991 0H13.0643Z" fill="black"/>
</svg>
