<svg width="166" height="162" viewBox="0 0 166 162" fill="none" xmlns="http://www.w3.org/2000/svg">
<path d="M37.6833 162V52.6989H2.09943V162H37.6833ZM19.896 37.7667C32.3047 37.7667 40.0285 29.3736 40.0285 18.8851C39.7973 8.16009 32.3052 0 20.1314 0C7.95963 0 0 8.16025 0 18.8851C0 29.3741 7.72193 37.7667 19.6637 37.7667H19.8949H19.896ZM57.3789 162H92.9628V100.961C92.9628 97.6942 93.1939 94.4308 94.1336 92.0956C96.7061 85.5688 102.561 78.8089 112.391 78.8089C125.267 78.8089 130.418 88.8321 130.418 103.526V161.999H166V99.327C166 65.754 148.445 50.1328 125.033 50.1328C105.837 50.1328 97.4084 61.0876 92.726 68.5488H92.9635V52.6966H57.3797C57.8466 62.9528 57.3797 161.998 57.3797 161.998L57.3789 162Z" fill="black"/>
</svg>
