<svg width="31" height="16" viewBox="0 0 31 16" fill="none" xmlns="http://www.w3.org/2000/svg">
<path d="M31 0H0V16H31V0Z" fill="#D80027"/>
<path d="M10.8332 4.88599L11.7206 7.00036H14.5923L12.269 8.30713L13.1565 10.4216L10.8332 9.11478L8.50997 10.4216L9.39734 8.30713L7.0741 7.00036H9.94577L10.8332 4.88599Z" fill="#FFDA44"/>
<path d="M16.4263 11.9184L15.555 11.4284L14.6839 11.9184L15.0166 11.1255L14.1454 10.6355H15.2223L15.555 9.84253L15.8879 10.6355H16.9647L16.0935 11.1255L16.4263 11.9184Z" fill="#FFDA44"/>
<path d="M18.6991 9.49657H17.6222L17.2895 10.2894L16.9567 9.49662L15.8798 9.49657L16.7511 9.0065L16.4182 8.21362L17.2895 8.7036L18.1607 8.21362L17.8279 9.0065L18.6991 9.49657Z" fill="#FFDA44"/>
<path d="M18.6991 6.50301L17.8279 6.99309L18.1606 7.78592L17.2895 7.29594L16.4182 7.78601L16.7511 6.99304L15.8798 6.50311L16.9568 6.50301L17.2895 5.71008L17.6222 6.50301H18.6991Z" fill="#FFDA44"/>
<path d="M16.4264 4.08116L16.0937 4.87409L16.9648 5.36408L15.888 5.36412L15.5551 6.1571L15.2223 5.36408L14.1455 5.36417L15.0167 4.87405L14.684 4.08112L15.5551 4.57119L16.4264 4.08116Z" fill="#FFDA44"/>
</svg>
