<svg width="50" height="50" viewBox="0 0 50 50" fill="none" xmlns="http://www.w3.org/2000/svg">
<path fill-rule="evenodd" clip-rule="evenodd" d="M50 25C50 31.6304 47.3661 37.9893 42.6777 42.6777C37.9893 47.3661 31.6304 50 25 50C18.3696 50 12.0107 47.3661 7.32233 42.6777C2.63392 37.9893 0 31.6304 0 25C0 18.3696 2.63392 12.0107 7.32233 7.32233C12.0107 2.63392 18.3696 0 25 0C31.6304 0 37.9893 2.63392 42.6777 7.32233C47.3661 12.0107 50 18.3696 50 25V25ZM25 15.625C24.4509 15.6245 23.9114 15.7686 23.4358 16.0429C22.9601 16.3172 22.5652 16.712 22.2906 17.1875C22.0924 17.5559 21.8222 17.8807 21.4961 18.1427C21.17 18.4047 20.7947 18.5986 20.3922 18.7128C19.9898 18.8271 19.5686 18.8593 19.1535 18.8078C18.7383 18.7562 18.3378 18.6218 17.9756 18.4125C17.6134 18.2033 17.2968 17.9234 17.0448 17.5896C16.7927 17.2557 16.6103 16.8747 16.5082 16.469C16.4062 16.0633 16.3866 15.6413 16.4507 15.2279C16.5147 14.8145 16.6612 14.4182 16.8812 14.0625C17.9132 12.2754 19.506 10.8786 21.4126 10.0889C23.3192 9.29926 25.4331 9.16074 27.4265 9.69487C29.4198 10.229 31.1812 11.4059 32.4376 13.0431C33.6939 14.6803 34.3749 16.6863 34.375 18.75C34.3756 20.6894 33.7748 22.5813 32.6555 24.1652C31.5362 25.749 29.9534 26.9468 28.125 27.5937V28.125C28.125 28.9538 27.7958 29.7487 27.2097 30.3347C26.6237 30.9208 25.8288 31.25 25 31.25C24.1712 31.25 23.3763 30.9208 22.7903 30.3347C22.2042 29.7487 21.875 28.9538 21.875 28.125V25C21.875 24.1712 22.2042 23.3763 22.7903 22.7903C23.3763 22.2042 24.1712 21.875 25 21.875C25.8288 21.875 26.6237 21.5458 27.2097 20.9597C27.7958 20.3737 28.125 19.5788 28.125 18.75C28.125 17.9212 27.7958 17.1263 27.2097 16.5403C26.6237 15.9542 25.8288 15.625 25 15.625ZM25 40.625C25.8288 40.625 26.6237 40.2958 27.2097 39.7097C27.7958 39.1237 28.125 38.3288 28.125 37.5C28.125 36.6712 27.7958 35.8763 27.2097 35.2903C26.6237 34.7042 25.8288 34.375 25 34.375C24.1712 34.375 23.3763 34.7042 22.7903 35.2903C22.2042 35.8763 21.875 36.6712 21.875 37.5C21.875 38.3288 22.2042 39.1237 22.7903 39.7097C23.3763 40.2958 24.1712 40.625 25 40.625V40.625Z" fill="#C2C2C2"/>
</svg>
