<svg width="62" height="72" viewBox="0 0 62 72" fill="none" xmlns="http://www.w3.org/2000/svg">
<path d="M2.95249 72C2.16944 72 1.41846 71.6839 0.864765 71.1213C0.311066 70.5587 0 69.7956 0 68.9999V2.99871C0.000231863 2.47191 0.136977 1.95446 0.396481 1.49841C0.655985 1.04235 1.0291 0.663764 1.47829 0.400729C1.92749 0.137695 2.43693 -0.000513884 2.95538 1.43578e-06C3.47382 0.000516755 3.983 0.13974 4.43169 0.403666L60.529 33.4043C60.9764 33.668 61.3478 34.0465 61.606 34.502C61.8641 34.9574 62 35.4737 62 35.9993C62 36.5249 61.8641 37.0413 61.606 37.4967C61.3478 37.9521 60.9764 38.3307 60.529 38.5944L4.43169 71.595C3.98239 71.8602 3.47207 71.9999 2.95249 72V72Z" fill="white"/>
</svg>
