<svg width="36" height="24" viewBox="0 0 36 24" fill="none" xmlns="http://www.w3.org/2000/svg">
<path fill-rule="evenodd" clip-rule="evenodd" d="M14.283 16.4277V6.83862L24.0084 11.6502L14.283 16.4277V16.4277ZM35.64 5.17844C35.64 5.17844 35.289 2.82554 34.209 1.78985C32.841 0.431679 31.3056 0.424854 30.6018 0.344661C25.5654 2.28825e-07 18.0072 0 18.0072 0H17.9928C17.9928 0 10.4364 2.28825e-07 5.3982 0.344661C4.6944 0.424854 3.1608 0.429973 1.791 1.78985C0.711 2.82554 0.36 5.17844 0.36 5.17844C0.36 5.17844 0 7.93914 0 10.7016V13.2899C0 16.0506 0.36 18.813 0.36 18.813C0.36 18.813 0.711 21.1642 1.791 22.1999C3.159 23.5598 4.959 23.5154 5.76 23.6587C8.64 23.9198 18 24 18 24C18 24 25.5654 23.9898 30.6018 23.6451C31.3056 23.5649 32.841 23.5598 34.209 22.1999C35.289 21.1642 35.64 18.813 35.64 18.813C35.64 18.813 36 16.0506 36 13.2899V10.7016C36 7.93914 35.64 5.17844 35.64 5.17844V5.17844Z" fill="#8D8D8D"/>
</svg>
