<svg width="28" height="24" viewBox="0 0 28 24" fill="none" xmlns="http://www.w3.org/2000/svg">
<path d="M26.3503 9.80746C23.5358 15.8193 16.7443 24 12.4522 24C8.22219 24 7.61258 14.9774 5.30129 8.97529C4.16362 6.01984 3.4296 6.69995 1.29802 8.1915L0 6.51333C3.10751 3.78182 6.21917 0.607954 8.12819 0.432396C10.2833 0.227809 11.6076 1.69862 12.0997 4.84622C12.7563 8.98497 13.6714 15.4087 15.2666 15.4087C16.5107 15.4087 19.5754 10.3134 19.7344 8.49147C20.015 5.82354 17.77 5.74198 15.8251 6.57416C18.905 -3.51005 31.7138 -1.6508 26.3503 9.80746V9.80746Z" fill="black"/>
</svg>
