<?xml version="1.0" encoding="UTF-8"?>
<svg width="10px" height="14px" viewBox="0 0 10 14" version="1.1" xmlns="http://www.w3.org/2000/svg" xmlns:xlink="http://www.w3.org/1999/xlink">
	<title>3. Icons/2.1 Maps/ic_place</title>
	<defs>
		<path d="M5,0 C2.23571429,0 0,2.191 0,4.9 C0,8.575 5,14 5,14 C5,14 10,8.575 10,4.9 C10,2.191 7.76428571,0 5,0 L5,0 Z M5,6.65 C4.01428571,6.65 3.21428571,5.866 3.21428571,4.9 C3.21428571,3.934 4.01428571,3.15 5,3.15 C5.98571429,3.15 6.78571429,3.934 6.78571429,4.9 C6.78571429,5.866 5.98571429,6.65 5,6.65 L5,6.65 Z" id="path-1"></path>
	</defs>
	<g id="Symbols" stroke="none" stroke-width="1" fill="none" fill-rule="evenodd">
		<g id="Navigation/Desktop/Utility-bar" transform="translate(-1157.000000, -13.000000)">
			<g id="links-right" transform="translate(1042.000000, 12.000000)">
				<g id="find-a-dealer" transform="translate(115.000000, 0.000000)">
					<g id="3.-Icons/2.1-Maps/ic_place" transform="translate(0.000000, 1.000000)">
						<mask id="mask-2" fill="white">
							<use xlink:href="#path-1"></use>
						</mask>
						<use id="Icon" fill="#FFFFFF" xlink:href="#path-1"></use>
					</g>
				</g>
			</g>
		</g>
	</g>
</svg>
