<svg width="24" height="24" viewBox="0 0 24 24" fill="none" xmlns="http://www.w3.org/2000/svg">
<path d="M11.9884 0C5.36717 0 0 5.36717 0 11.9884C0 17.0668 3.1606 21.4027 7.62099 23.1487C7.51523 22.1992 7.42148 20.7464 7.65999 19.7114C7.879 18.7738 9.06628 13.7539 9.06628 13.7539C9.06628 13.7539 8.70702 13.0309 8.70702 11.9726C8.70702 10.3083 9.67605 9.06253 10.8753 9.06253C11.8991 9.06253 12.3949 9.82831 12.3949 10.7501C12.3949 11.7776 11.7424 13.3167 11.4026 14.7425C11.1176 15.9342 12.0004 16.9063 13.1764 16.9063C15.3057 16.9063 16.946 14.66 16.946 11.4176C16.946 8.55777 14.8835 6.54995 11.9381 6.54995C8.52777 6.54995 6.52745 9.11278 6.52745 11.7491C6.52745 12.7804 6.92197 13.8897 7.41848 14.4875C7.51599 14.6082 7.52799 14.714 7.50023 14.8355C7.41023 15.2105 7.20698 16.0348 7.16797 16.199C7.11322 16.4218 6.99622 16.4683 6.76596 16.3633C5.27341 15.6717 4.33214 13.4839 4.33214 11.7184C4.33214 7.94125 7.08247 4.46414 12.2546 4.46414C16.4113 4.46414 19.6454 7.43273 19.6454 11.3861C19.6454 15.5232 17.0398 18.8511 13.4149 18.8511C12.1999 18.8511 11.0591 18.2218 10.6571 17.4718L9.90706 20.3196C9.6378 21.3629 8.90278 22.671 8.40701 23.4645C9.53205 23.808 10.7156 24 11.9576 24C18.5676 24 23.9422 18.6366 23.9422 12.0116C23.9422 5.39042 18.5668 0.0270008 11.9576 0.0270008L11.9884 0Z" fill="black"/>
</svg>
