<svg width="31" height="16" viewBox="0 0 31 16" fill="none" xmlns="http://www.w3.org/2000/svg">
<path d="M30.4654 16H0.534507C0.239341 16 0 15.8115 0 15.5789V0.421071C0 0.188547 0.239341 0 0.534507 0H30.4655C30.7607 0 31 0.188547 31 0.421071V15.5789C30.9999 15.8115 30.7606 16 30.4654 16Z" fill="#F5F5F5"/>
<path d="M30.9999 1.23083H0V0.421071C0 0.188547 0.239341 0 0.534507 0H30.4655C30.7607 0 31 0.188547 31 0.421071L30.9999 1.23083Z" fill="#FF4B55"/>
<path d="M30.9999 4.9231H0V6.15387H30.9999V4.9231Z" fill="#FF4B55"/>
<path d="M30.9999 2.46143H0V3.69221H30.9999V2.46143Z" fill="#FF4B55"/>
<path d="M30.9999 8.61541H0.534507C0.239341 8.61541 0 8.42686 0 8.19434V7.38458H30.9999V8.61541Z" fill="#FF4B55"/>
<path d="M30.9999 12.308H0V13.5388H30.9999V12.308Z" fill="#FF4B55"/>
<path d="M30.4654 16H0.534507C0.239341 16 0 15.8115 0 15.5789V14.7692H30.9999V15.579C30.9999 15.8115 30.7606 16 30.4654 16Z" fill="#FF4B55"/>
<path d="M30.9999 9.84637H0V11.0772H30.9999V9.84637Z" fill="#FF4B55"/>
<path d="M13.8965 0.000976562H0.534507C0.239341 0.000976562 0 0.189476 0 0.421999V8.19521C0 8.42773 0.239341 8.61628 0.534507 8.61628H13.8966C14.1917 8.61628 14.4311 8.42773 14.4311 8.19521V0.421999C14.431 0.189476 14.1917 0.000976562 13.8965 0.000976562Z" fill="#41479B"/>
<path d="M1.50086 0.966538L1.61916 1.24604L1.99316 1.24829C2.0416 1.24862 2.06164 1.29727 2.02271 1.31993L1.72185 1.49498L1.83471 1.77586C1.84936 1.81221 1.79675 1.84235 1.75733 1.82013L1.45309 1.64885L1.14884 1.82018C1.10942 1.84235 1.05693 1.81226 1.07146 1.77591L1.18432 1.49502L0.883462 1.31997C0.844531 1.29727 0.864572 1.24867 0.913009 1.24833L1.28701 1.24609L1.40531 0.966585C1.42057 0.930336 1.48548 0.930336 1.50086 0.966538Z" fill="#F5F5F5"/>
<path d="M1.50086 2.42854L1.61916 2.70804L1.99316 2.71029C2.0416 2.71062 2.06164 2.75927 2.02271 2.78193L1.72185 2.95698L1.83471 3.23787C1.84936 3.27421 1.79675 3.30436 1.75733 3.28213L1.45309 3.11085L1.14884 3.28218C1.10942 3.30436 1.05693 3.27426 1.07146 3.23791L1.18432 2.95702L0.883462 2.78198C0.844531 2.75927 0.864572 2.71067 0.913009 2.71033L1.28701 2.70809L1.40531 2.42859C1.42057 2.39238 1.48548 2.39238 1.50086 2.42854Z" fill="#F5F5F5"/>
<path d="M1.50086 3.89064L1.61916 4.17014L1.99316 4.17238C2.0416 4.17272 2.06164 4.22137 2.02271 4.24402L1.72185 4.41907L1.83471 4.69996C1.84936 4.73631 1.79675 4.76645 1.75733 4.74423L1.45309 4.57294L1.14884 4.74427C1.10942 4.76645 1.05693 4.73636 1.07146 4.70001L1.18432 4.41912L0.883462 4.24407C0.844531 4.22137 0.864572 4.17276 0.913009 4.17243L1.28701 4.17019L1.40531 3.89068C1.42057 3.85448 1.48548 3.85448 1.50086 3.89064Z" fill="#F5F5F5"/>
<path d="M1.50086 5.35283L1.61916 5.63233L1.99316 5.63458C2.0416 5.63491 2.06164 5.68356 2.02271 5.70622L1.72185 5.88127L1.83471 6.16216C1.84936 6.1985 1.79675 6.22865 1.75733 6.20642L1.45309 6.03514L1.14884 6.20647C1.10942 6.22865 1.05693 6.19855 1.07146 6.1622L1.18432 5.88131L0.883462 5.70627C0.844531 5.68356 0.864572 5.63496 0.913009 5.63462L1.28701 5.63238L1.40531 5.35288C1.42057 5.31663 1.48548 5.31663 1.50086 5.35283Z" fill="#F5F5F5"/>
<path d="M1.50086 6.8149L1.61916 7.09441L1.99316 7.09665C2.0416 7.09698 2.06164 7.14563 2.02271 7.16829L1.72185 7.34334L1.83471 7.62423C1.84936 7.66057 1.79675 7.69072 1.75733 7.66849L1.45309 7.49721L1.14884 7.66854C1.10942 7.69072 1.05693 7.66062 1.07146 7.62428L1.18432 7.34339L0.883462 7.16834C0.844531 7.14563 0.864572 7.09703 0.913009 7.0967L1.28701 7.09446L1.40531 6.81495C1.42057 6.77865 1.48548 6.77865 1.50086 6.8149Z" fill="#F5F5F5"/>
<path d="M2.94153 1.68324L3.05984 1.96275L3.43384 1.96499C3.48227 1.96533 3.50231 2.01398 3.46338 2.03663L3.16253 2.21168L3.27538 2.49257C3.29004 2.52892 3.23742 2.55906 3.19801 2.53683L2.89376 2.36551L2.58951 2.53683C2.5501 2.55901 2.4976 2.52892 2.51213 2.49257L2.62499 2.21168L2.32414 2.03663C2.2852 2.01393 2.30525 1.96533 2.35368 1.96499L2.72768 1.96275L2.84599 1.68324C2.86118 1.64709 2.92621 1.64709 2.94153 1.68324Z" fill="#F5F5F5"/>
<path d="M2.94153 3.14544L3.05984 3.42494L3.43384 3.42719C3.48227 3.42752 3.50231 3.47617 3.46338 3.49883L3.16253 3.67388L3.27538 3.95477C3.29004 3.99111 3.23742 4.02125 3.19801 3.99903L2.89376 3.8277L2.58951 3.99903C2.5501 4.02121 2.4976 3.99116 2.51213 3.95477L2.62499 3.67388L2.32414 3.49883C2.2852 3.47612 2.30525 3.42752 2.35368 3.42719L2.72768 3.42494L2.84599 3.14544C2.86118 3.10924 2.92621 3.10924 2.94153 3.14544Z" fill="#F5F5F5"/>
<path d="M2.94153 4.60753L3.05984 4.88704L3.43384 4.88928C3.48227 4.88961 3.50231 4.93826 3.46338 4.96092L3.16253 5.13597L3.27538 5.41685C3.29004 5.4532 3.23742 5.48334 3.19801 5.46112L2.89376 5.28979L2.58951 5.46112C2.5501 5.4833 2.4976 5.4532 2.51213 5.41685L2.62499 5.13597L2.32414 4.96092C2.2852 4.93822 2.30525 4.88961 2.35368 4.88928L2.72768 4.88704L2.84599 4.60753C2.86118 4.57133 2.92621 4.57133 2.94153 4.60753Z" fill="#F5F5F5"/>
<path d="M2.94153 6.06966L3.05984 6.34916L3.43384 6.35141C3.48227 6.35174 3.50231 6.40039 3.46338 6.42305L3.16253 6.5981L3.27538 6.87898C3.29004 6.91533 3.23742 6.94547 3.19801 6.92325L2.89376 6.75192L2.58951 6.92325C2.5501 6.94543 2.4976 6.91533 2.51213 6.87898L2.62499 6.5981L2.32414 6.42305C2.2852 6.40034 2.30525 6.35174 2.35368 6.35141L2.72768 6.34916L2.84599 6.06966C2.86118 6.0335 2.92621 6.0335 2.94153 6.06966Z" fill="#F5F5F5"/>
<path d="M4.38209 0.966422L4.50039 1.24593L4.87439 1.24817C4.92283 1.2485 4.94287 1.29715 4.90394 1.31981L4.60308 1.49486L4.71594 1.77575C4.73059 1.81209 4.67798 1.84224 4.63856 1.82001L4.33431 1.64868L4.03007 1.82001C3.99065 1.84219 3.93815 1.81209 3.95269 1.77575L4.06555 1.49486L3.76469 1.31981C3.72576 1.29711 3.7458 1.2485 3.79423 1.24817L4.16823 1.24593L4.28654 0.966422C4.3018 0.930219 4.36677 0.930219 4.38209 0.966422Z" fill="#F5F5F5"/>
<path d="M4.38209 2.42854L4.50039 2.70805L4.87439 2.71029C4.92283 2.71063 4.94287 2.75928 4.90394 2.78193L4.60308 2.95698L4.71594 3.23787C4.73059 3.27422 4.67798 3.30436 4.63856 3.28213L4.33431 3.11081L4.03007 3.28213C3.99065 3.30431 3.93815 3.27422 3.95269 3.23787L4.06555 2.95698L3.76469 2.78193C3.72576 2.75923 3.7458 2.71063 3.79423 2.71029L4.16823 2.70805L4.28654 2.42854C4.3018 2.39239 4.36677 2.39239 4.38209 2.42854Z" fill="#F5F5F5"/>
<path d="M4.38209 3.89064L4.50039 4.17014L4.87439 4.17239C4.92283 4.17272 4.94287 4.22137 4.90394 4.24403L4.60308 4.41908L4.71594 4.69996C4.73059 4.73631 4.67798 4.76645 4.63856 4.74422L4.33431 4.5729L4.03007 4.74422C3.99065 4.7664 3.93815 4.73631 3.95269 4.69996L4.06555 4.41908L3.76469 4.24403C3.72576 4.22132 3.7458 4.17272 3.79423 4.17239L4.16823 4.17014L4.28654 3.89064C4.3018 3.85449 4.36677 3.85449 4.38209 3.89064Z" fill="#F5F5F5"/>
<path d="M4.38209 5.35284L4.50039 5.63234L4.87439 5.63458C4.92283 5.63492 4.94287 5.68357 4.90394 5.70622L4.60308 5.88127L4.71594 6.16216C4.73059 6.19851 4.67798 6.22865 4.63856 6.20643L4.33431 6.0351L4.03007 6.20643C3.99065 6.2286 3.93815 6.19851 3.95269 6.16216L4.06555 5.88127L3.76469 5.70622C3.72576 5.68352 3.7458 5.63492 3.79423 5.63458L4.16823 5.63234L4.28654 5.35284C4.3018 5.31663 4.36677 5.31663 4.38209 5.35284Z" fill="#F5F5F5"/>
<path d="M4.38209 6.81491L4.50039 7.09441L4.87439 7.09665C4.92283 7.09699 4.94287 7.14564 4.90394 7.1683L4.60308 7.34334L4.71594 7.62423C4.73059 7.66058 4.67798 7.69072 4.63856 7.6685L4.33431 7.49717L4.03007 7.6685C3.99065 7.69068 3.93815 7.66058 3.95269 7.62423L4.06555 7.34334L3.76469 7.1683C3.72576 7.14559 3.7458 7.09699 3.79423 7.09665L4.16823 7.09441L4.28654 6.81491C4.3018 6.77866 4.36677 6.77866 4.38209 6.81491Z" fill="#F5F5F5"/>
<path d="M5.82263 1.68324L5.94094 1.96275L6.31494 1.96499C6.36338 1.96533 6.38342 2.01398 6.34449 2.03663L6.04363 2.21168L6.15649 2.49257C6.17114 2.52892 6.11853 2.55906 6.07911 2.53683L5.77486 2.36551L5.47062 2.53683C5.4312 2.55901 5.37871 2.52892 5.39324 2.49257L5.5061 2.21168L5.20524 2.03663C5.16631 2.01393 5.18635 1.96533 5.23479 1.96499L5.60878 1.96275L5.72709 1.68324C5.74229 1.64709 5.80732 1.64709 5.82263 1.68324Z" fill="#F5F5F5"/>
<path d="M5.82263 3.14544L5.94094 3.42494L6.31494 3.42719C6.36338 3.42752 6.38342 3.47617 6.34449 3.49883L6.04363 3.67388L6.15649 3.95477C6.17114 3.99111 6.11853 4.02125 6.07911 3.99903L5.77486 3.8277L5.47062 3.99903C5.4312 4.02121 5.37871 3.99116 5.39324 3.95477L5.5061 3.67388L5.20524 3.49883C5.16631 3.47612 5.18635 3.42752 5.23479 3.42719L5.60878 3.42494L5.72709 3.14544C5.74229 3.10924 5.80732 3.10924 5.82263 3.14544Z" fill="#F5F5F5"/>
<path d="M5.82263 4.60753L5.94094 4.88704L6.31494 4.88928C6.36338 4.88961 6.38342 4.93826 6.34449 4.96092L6.04363 5.13597L6.15649 5.41685C6.17114 5.4532 6.11853 5.48334 6.07911 5.46112L5.77486 5.28979L5.47062 5.46112C5.4312 5.4833 5.37871 5.4532 5.39324 5.41685L5.5061 5.13597L5.20524 4.96092C5.16631 4.93822 5.18635 4.88961 5.23479 4.88928L5.60878 4.88704L5.72709 4.60753C5.74229 4.57133 5.80732 4.57133 5.82263 4.60753Z" fill="#F5F5F5"/>
<path d="M5.82263 6.06966L5.94094 6.34916L6.31494 6.35141C6.36338 6.35174 6.38342 6.40039 6.34449 6.42305L6.04363 6.5981L6.15649 6.87898C6.17114 6.91533 6.11853 6.94547 6.07911 6.92325L5.77486 6.75192L5.47062 6.92325C5.4312 6.94543 5.37871 6.91533 5.39324 6.87898L5.5061 6.5981L5.20524 6.42305C5.16631 6.40034 5.18635 6.35174 5.23479 6.35141L5.60878 6.34916L5.72709 6.06966C5.74229 6.0335 5.80732 6.0335 5.82263 6.06966Z" fill="#F5F5F5"/>
<path d="M7.26325 0.966422L7.38156 1.24593L7.75556 1.24817C7.80399 1.2485 7.82403 1.29715 7.7851 1.31981L7.48424 1.49486L7.5971 1.77575C7.61176 1.81209 7.55914 1.84224 7.51972 1.82001L7.21542 1.64868L6.91117 1.82001C6.87175 1.84219 6.81926 1.81209 6.83379 1.77575L6.94665 1.49486L6.64579 1.31981C6.60686 1.29711 6.6269 1.2485 6.67534 1.24817L7.04934 1.24593L7.16765 0.966422C7.18296 0.930219 7.24793 0.930219 7.26325 0.966422Z" fill="#F5F5F5"/>
<path d="M7.26325 2.42854L7.38156 2.70805L7.75556 2.71029C7.80399 2.71063 7.82403 2.75928 7.7851 2.78193L7.48424 2.95698L7.5971 3.23787C7.61176 3.27422 7.55914 3.30436 7.51972 3.28213L7.21542 3.11081L6.91117 3.28213C6.87175 3.30431 6.81926 3.27422 6.83379 3.23787L6.94665 2.95698L6.64579 2.78193C6.60686 2.75923 6.6269 2.71063 6.67534 2.71029L7.04934 2.70805L7.16765 2.42854C7.18296 2.39239 7.24793 2.39239 7.26325 2.42854Z" fill="#F5F5F5"/>
<path d="M7.26325 3.89064L7.38156 4.17014L7.75556 4.17239C7.80399 4.17272 7.82403 4.22137 7.7851 4.24403L7.48424 4.41908L7.5971 4.69996C7.61176 4.73631 7.55914 4.76645 7.51972 4.74422L7.21542 4.5729L6.91117 4.74422C6.87175 4.7664 6.81926 4.73631 6.83379 4.69996L6.94665 4.41908L6.64579 4.24403C6.60686 4.22132 6.6269 4.17272 6.67534 4.17239L7.04934 4.17014L7.16765 3.89064C7.18296 3.85449 7.24793 3.85449 7.26325 3.89064Z" fill="#F5F5F5"/>
<path d="M7.26325 5.35284L7.38156 5.63234L7.75556 5.63458C7.80399 5.63492 7.82403 5.68357 7.7851 5.70622L7.48424 5.88127L7.5971 6.16216C7.61176 6.19851 7.55914 6.22865 7.51972 6.20643L7.21542 6.0351L6.91117 6.20643C6.87175 6.2286 6.81926 6.19851 6.83379 6.16216L6.94665 5.88127L6.64579 5.70622C6.60686 5.68352 6.6269 5.63492 6.67534 5.63458L7.04934 5.63234L7.16765 5.35284C7.18296 5.31663 7.24793 5.31663 7.26325 5.35284Z" fill="#F5F5F5"/>
<path d="M7.26325 6.81491L7.38156 7.09441L7.75556 7.09665C7.80399 7.09699 7.82403 7.14564 7.7851 7.1683L7.48424 7.34334L7.5971 7.62423C7.61176 7.66058 7.55914 7.69072 7.51972 7.6685L7.21542 7.49717L6.91117 7.6685C6.87175 7.69068 6.81926 7.66058 6.83379 7.62423L6.94665 7.34334L6.64579 7.1683C6.60686 7.14559 6.6269 7.09699 6.67534 7.09665L7.04934 7.09441L7.16765 6.81491C7.18296 6.77866 7.24793 6.77866 7.26325 6.81491Z" fill="#F5F5F5"/>
<path d="M8.70386 1.68324L8.82217 1.96275L9.19617 1.96499C9.24461 1.96533 9.26465 2.01398 9.22572 2.03663L8.92486 2.21168L9.03772 2.49257C9.05237 2.52892 8.99976 2.55906 8.96034 2.53683L8.65609 2.36551L8.35184 2.53683C8.31243 2.55901 8.25993 2.52892 8.27446 2.49257L8.38732 2.21168L8.08647 2.03663C8.04753 2.01393 8.06757 1.96533 8.11601 1.96499L8.49001 1.96275L8.60832 1.68324C8.62364 1.64709 8.68855 1.64709 8.70386 1.68324Z" fill="#F5F5F5"/>
<path d="M8.70386 3.14544L8.82217 3.42494L9.19617 3.42719C9.24461 3.42752 9.26465 3.47617 9.22572 3.49883L8.92486 3.67388L9.03772 3.95477C9.05237 3.99111 8.99976 4.02125 8.96034 3.99903L8.65609 3.8277L8.35184 3.99903C8.31243 4.02121 8.25993 3.99116 8.27446 3.95477L8.38732 3.67388L8.08647 3.49883C8.04753 3.47612 8.06757 3.42752 8.11601 3.42719L8.49001 3.42494L8.60832 3.14544C8.62364 3.10924 8.68855 3.10924 8.70386 3.14544Z" fill="#F5F5F5"/>
<path d="M8.70386 4.60753L8.82217 4.88704L9.19617 4.88928C9.24461 4.88961 9.26465 4.93826 9.22572 4.96092L8.92486 5.13597L9.03772 5.41685C9.05237 5.4532 8.99976 5.48334 8.96034 5.46112L8.65609 5.28979L8.35184 5.46112C8.31243 5.4833 8.25993 5.4532 8.27446 5.41685L8.38732 5.13597L8.08647 4.96092C8.04753 4.93822 8.06757 4.88961 8.11601 4.88928L8.49001 4.88704L8.60832 4.60753C8.62364 4.57133 8.68855 4.57133 8.70386 4.60753Z" fill="#F5F5F5"/>
<path d="M8.70386 6.06966L8.82217 6.34916L9.19617 6.35141C9.24461 6.35174 9.26465 6.40039 9.22572 6.42305L8.92486 6.5981L9.03772 6.87898C9.05237 6.91533 8.99976 6.94547 8.96034 6.92325L8.65609 6.75192L8.35184 6.92325C8.31243 6.94543 8.25993 6.91533 8.27446 6.87898L8.38732 6.5981L8.08647 6.42305C8.04753 6.40034 8.06757 6.35174 8.11601 6.35141L8.49001 6.34916L8.60832 6.06966C8.62364 6.0335 8.68855 6.0335 8.70386 6.06966Z" fill="#F5F5F5"/>
<path d="M10.1445 0.966422L10.2628 1.24593L10.6368 1.24817C10.6853 1.2485 10.7053 1.29715 10.6664 1.31981L10.3655 1.49486L10.4784 1.77575C10.493 1.81209 10.4404 1.84224 10.401 1.82001L10.0968 1.64868L9.79252 1.82001C9.7531 1.84219 9.70061 1.81209 9.71514 1.77575L9.828 1.49486L9.52714 1.31981C9.48821 1.29711 9.50825 1.2485 9.55669 1.24817L9.93069 1.24593L10.049 0.966422C10.0642 0.930219 10.1292 0.930219 10.1445 0.966422Z" fill="#F5F5F5"/>
<path d="M10.1445 2.42854L10.2628 2.70805L10.6368 2.71029C10.6853 2.71063 10.7053 2.75928 10.6664 2.78193L10.3655 2.95698L10.4784 3.23787C10.493 3.27422 10.4404 3.30436 10.401 3.28213L10.0968 3.11081L9.79252 3.28213C9.7531 3.30431 9.70061 3.27422 9.71514 3.23787L9.828 2.95698L9.52714 2.78193C9.48821 2.75923 9.50825 2.71063 9.55669 2.71029L9.93069 2.70805L10.049 2.42854C10.0642 2.39239 10.1292 2.39239 10.1445 2.42854Z" fill="#F5F5F5"/>
<path d="M10.1445 3.89064L10.2628 4.17014L10.6368 4.17239C10.6853 4.17272 10.7053 4.22137 10.6664 4.24403L10.3655 4.41908L10.4784 4.69996C10.493 4.73631 10.4404 4.76645 10.401 4.74422L10.0968 4.5729L9.79252 4.74422C9.7531 4.7664 9.70061 4.73631 9.71514 4.69996L9.828 4.41908L9.52714 4.24403C9.48821 4.22132 9.50825 4.17272 9.55669 4.17239L9.93069 4.17014L10.049 3.89064C10.0642 3.85449 10.1292 3.85449 10.1445 3.89064Z" fill="#F5F5F5"/>
<path d="M10.1445 5.35284L10.2628 5.63234L10.6368 5.63458C10.6853 5.63492 10.7053 5.68357 10.6664 5.70622L10.3655 5.88127L10.4784 6.16216C10.493 6.19851 10.4404 6.22865 10.401 6.20643L10.0968 6.0351L9.79252 6.20643C9.7531 6.2286 9.70061 6.19851 9.71514 6.16216L9.828 5.88127L9.52714 5.70622C9.48821 5.68352 9.50825 5.63492 9.55669 5.63458L9.93069 5.63234L10.049 5.35284C10.0642 5.31663 10.1292 5.31663 10.1445 5.35284Z" fill="#F5F5F5"/>
<path d="M10.1445 6.81491L10.2628 7.09441L10.6368 7.09665C10.6853 7.09699 10.7053 7.14564 10.6664 7.1683L10.3655 7.34334L10.4784 7.62423C10.493 7.66058 10.4404 7.69072 10.401 7.6685L10.0968 7.49717L9.79252 7.6685C9.7531 7.69068 9.70061 7.66058 9.71514 7.62423L9.828 7.34334L9.52714 7.1683C9.48821 7.14559 9.50825 7.09699 9.55669 7.09665L9.93069 7.09441L10.049 6.81491C10.0642 6.77866 10.1292 6.77866 10.1445 6.81491Z" fill="#F5F5F5"/>
<path d="M11.5851 1.68324L11.7034 1.96275L12.0774 1.96499C12.1258 1.96533 12.1459 2.01398 12.1069 2.03663L11.8061 2.21168L11.9189 2.49257C11.9336 2.52892 11.881 2.55906 11.8416 2.53683L11.5373 2.36551L11.2331 2.53683C11.1937 2.55901 11.1412 2.52892 11.1557 2.49257L11.2685 2.21168L10.9677 2.03663C10.9288 2.01393 10.9488 1.96533 10.9972 1.96499L11.3712 1.96275L11.4895 1.68324C11.5048 1.64709 11.5698 1.64709 11.5851 1.68324Z" fill="#F5F5F5"/>
<path d="M11.5851 3.14544L11.7034 3.42494L12.0774 3.42719C12.1258 3.42752 12.1459 3.47617 12.1069 3.49883L11.8061 3.67388L11.9189 3.95477C11.9336 3.99111 11.881 4.02125 11.8416 3.99903L11.5373 3.8277L11.2331 3.99903C11.1937 4.02121 11.1412 3.99116 11.1557 3.95477L11.2685 3.67388L10.9677 3.49883C10.9288 3.47612 10.9488 3.42752 10.9972 3.42719L11.3712 3.42494L11.4895 3.14544C11.5048 3.10924 11.5698 3.10924 11.5851 3.14544Z" fill="#F5F5F5"/>
<path d="M11.5851 4.60753L11.7034 4.88704L12.0774 4.88928C12.1258 4.88961 12.1459 4.93826 12.1069 4.96092L11.8061 5.13597L11.9189 5.41685C11.9336 5.4532 11.881 5.48334 11.8416 5.46112L11.5373 5.28979L11.2331 5.46112C11.1937 5.4833 11.1412 5.4532 11.1557 5.41685L11.2685 5.13597L10.9677 4.96092C10.9288 4.93822 10.9488 4.88961 10.9972 4.88928L11.3712 4.88704L11.4895 4.60753C11.5048 4.57133 11.5698 4.57133 11.5851 4.60753Z" fill="#F5F5F5"/>
<path d="M11.5851 6.06966L11.7034 6.34916L12.0774 6.35141C12.1258 6.35174 12.1459 6.40039 12.1069 6.42305L11.8061 6.5981L11.9189 6.87898C11.9336 6.91533 11.881 6.94547 11.8416 6.92325L11.5373 6.75192L11.2331 6.92325C11.1937 6.94543 11.1412 6.91533 11.1557 6.87898L11.2685 6.5981L10.9677 6.42305C10.9288 6.40034 10.9488 6.35174 10.9972 6.35141L11.3712 6.34916L11.4895 6.06966C11.5048 6.0335 11.5698 6.0335 11.5851 6.06966Z" fill="#F5F5F5"/>
<path d="M13.0258 0.966422L13.1441 1.24593L13.5181 1.24817C13.5665 1.2485 13.5865 1.29715 13.5476 1.31981L13.2468 1.49486L13.3596 1.77575C13.3743 1.81209 13.3217 1.84224 13.2822 1.82001L12.978 1.64868L12.6737 1.82001C12.6343 1.84219 12.5818 1.81209 12.5964 1.77575L12.7092 1.49486L12.4084 1.31981C12.3694 1.29711 12.3895 1.2485 12.4379 1.24817L12.8119 1.24593L12.9302 0.966422C12.9455 0.930219 13.0104 0.930219 13.0258 0.966422Z" fill="#F5F5F5"/>
<path d="M13.0258 2.42854L13.1441 2.70805L13.5181 2.71029C13.5665 2.71063 13.5865 2.75928 13.5476 2.78193L13.2468 2.95698L13.3596 3.23787C13.3743 3.27422 13.3217 3.30436 13.2822 3.28213L12.978 3.11081L12.6737 3.28213C12.6343 3.30431 12.5818 3.27422 12.5964 3.23787L12.7092 2.95698L12.4084 2.78193C12.3694 2.75923 12.3895 2.71063 12.4379 2.71029L12.8119 2.70805L12.9302 2.42854C12.9455 2.39239 13.0104 2.39239 13.0258 2.42854Z" fill="#F5F5F5"/>
<path d="M13.0258 3.89064L13.1441 4.17014L13.5181 4.17239C13.5665 4.17272 13.5865 4.22137 13.5476 4.24403L13.2468 4.41908L13.3596 4.69996C13.3743 4.73631 13.3217 4.76645 13.2822 4.74422L12.978 4.5729L12.6737 4.74422C12.6343 4.7664 12.5818 4.73631 12.5964 4.69996L12.7092 4.41908L12.4084 4.24403C12.3694 4.22132 12.3895 4.17272 12.4379 4.17239L12.8119 4.17014L12.9302 3.89064C12.9455 3.85449 13.0104 3.85449 13.0258 3.89064Z" fill="#F5F5F5"/>
<path d="M13.0258 5.35284L13.1441 5.63234L13.5181 5.63458C13.5665 5.63492 13.5865 5.68357 13.5476 5.70622L13.2468 5.88127L13.3596 6.16216C13.3743 6.19851 13.3217 6.22865 13.2822 6.20643L12.978 6.0351L12.6737 6.20643C12.6343 6.2286 12.5818 6.19851 12.5964 6.16216L12.7092 5.88127L12.4084 5.70622C12.3694 5.68352 12.3895 5.63492 12.4379 5.63458L12.8119 5.63234L12.9302 5.35284C12.9455 5.31663 13.0104 5.31663 13.0258 5.35284Z" fill="#F5F5F5"/>
<path d="M13.0258 6.81491L13.1441 7.09441L13.5181 7.09665C13.5665 7.09699 13.5865 7.14564 13.5476 7.1683L13.2468 7.34334L13.3596 7.62423C13.3743 7.66058 13.3217 7.69072 13.2822 7.6685L12.978 7.49717L12.6737 7.6685C12.6343 7.69068 12.5818 7.66058 12.5964 7.62423L12.7092 7.34334L12.4084 7.1683C12.3694 7.14559 12.3895 7.09699 12.4379 7.09665L12.8119 7.09441L12.9302 6.81491C12.9455 6.77866 13.0104 6.77866 13.0258 6.81491Z" fill="#F5F5F5"/>
</svg>
